<mxfile host="app.diagrams.net" modified="2023-11-28T12:32:59.833Z" agent="Mozilla/5.0 (Windows NT 10.0; Win64; x64) AppleWebKit/537.36 (KHTML, like Gecko) Chrome/119.0.0.0 Safari/537.36" etag="o4gtH9-sh50S1iYLrJXO" version="22.1.4" type="github">
  <diagram name="Page-1" id="K9_iSiwsk7pYbh0bwCpr">
    <mxGraphModel dx="1050" dy="566" grid="1" gridSize="10" guides="1" tooltips="1" connect="1" arrows="1" fold="1" page="1" pageScale="1" pageWidth="850" pageHeight="1100" math="0" shadow="0">
      <root>
        <mxCell id="0" />
        <mxCell id="1" parent="0" />
        <mxCell id="Nav_433cfQr_aZsSD8Gi-4" style="edgeStyle=orthogonalEdgeStyle;rounded=0;orthogonalLoop=1;jettySize=auto;html=1;exitX=0.5;exitY=1;exitDx=0;exitDy=0;" edge="1" parent="1" source="Nav_433cfQr_aZsSD8Gi-1" target="Nav_433cfQr_aZsSD8Gi-3">
          <mxGeometry relative="1" as="geometry" />
        </mxCell>
        <mxCell id="Nav_433cfQr_aZsSD8Gi-1" value="" style="ellipse;html=1;shape=startState;fillColor=#000000;strokeColor=#ff0000;" vertex="1" parent="1">
          <mxGeometry x="380" y="40" width="30" height="30" as="geometry" />
        </mxCell>
        <mxCell id="Nav_433cfQr_aZsSD8Gi-8" style="edgeStyle=orthogonalEdgeStyle;rounded=0;orthogonalLoop=1;jettySize=auto;html=1;exitX=0.5;exitY=1;exitDx=0;exitDy=0;entryX=0.5;entryY=0;entryDx=0;entryDy=0;" edge="1" parent="1" source="Nav_433cfQr_aZsSD8Gi-3" target="Nav_433cfQr_aZsSD8Gi-5">
          <mxGeometry relative="1" as="geometry" />
        </mxCell>
        <mxCell id="Nav_433cfQr_aZsSD8Gi-3" value="User enters login name and password" style="rounded=1;whiteSpace=wrap;html=1;" vertex="1" parent="1">
          <mxGeometry x="335" y="110" width="120" height="50" as="geometry" />
        </mxCell>
        <mxCell id="Nav_433cfQr_aZsSD8Gi-12" style="edgeStyle=orthogonalEdgeStyle;rounded=0;orthogonalLoop=1;jettySize=auto;html=1;exitX=1;exitY=0.5;exitDx=0;exitDy=0;" edge="1" parent="1" source="Nav_433cfQr_aZsSD8Gi-5" target="Nav_433cfQr_aZsSD8Gi-11">
          <mxGeometry relative="1" as="geometry" />
        </mxCell>
        <mxCell id="Nav_433cfQr_aZsSD8Gi-15" value="[No]" style="edgeLabel;html=1;align=center;verticalAlign=middle;resizable=0;points=[];" vertex="1" connectable="0" parent="Nav_433cfQr_aZsSD8Gi-12">
          <mxGeometry x="-0.0729" relative="1" as="geometry">
            <mxPoint y="-10" as="offset" />
          </mxGeometry>
        </mxCell>
        <mxCell id="Nav_433cfQr_aZsSD8Gi-18" style="edgeStyle=orthogonalEdgeStyle;rounded=0;orthogonalLoop=1;jettySize=auto;html=1;exitX=0.5;exitY=1;exitDx=0;exitDy=0;" edge="1" parent="1" source="Nav_433cfQr_aZsSD8Gi-5" target="Nav_433cfQr_aZsSD8Gi-16">
          <mxGeometry relative="1" as="geometry" />
        </mxCell>
        <mxCell id="Nav_433cfQr_aZsSD8Gi-19" value="[Yes]" style="edgeLabel;html=1;align=center;verticalAlign=middle;resizable=0;points=[];" vertex="1" connectable="0" parent="Nav_433cfQr_aZsSD8Gi-18">
          <mxGeometry x="-0.1771" y="1" relative="1" as="geometry">
            <mxPoint x="14" as="offset" />
          </mxGeometry>
        </mxCell>
        <mxCell id="Nav_433cfQr_aZsSD8Gi-5" value="" style="rhombus;whiteSpace=wrap;html=1;fontColor=#000000;fillColor=#ffffc0;strokeColor=#ff0000;" vertex="1" parent="1">
          <mxGeometry x="355" y="210" width="80" height="40" as="geometry" />
        </mxCell>
        <mxCell id="Nav_433cfQr_aZsSD8Gi-13" style="edgeStyle=orthogonalEdgeStyle;rounded=0;orthogonalLoop=1;jettySize=auto;html=1;exitX=0.5;exitY=0;exitDx=0;exitDy=0;entryX=1;entryY=0.5;entryDx=0;entryDy=0;" edge="1" parent="1" source="Nav_433cfQr_aZsSD8Gi-11" target="Nav_433cfQr_aZsSD8Gi-3">
          <mxGeometry relative="1" as="geometry" />
        </mxCell>
        <mxCell id="Nav_433cfQr_aZsSD8Gi-11" value="Invalid login/&lt;br&gt;password" style="rounded=1;whiteSpace=wrap;html=1;" vertex="1" parent="1">
          <mxGeometry x="520" y="210" width="90" height="40" as="geometry" />
        </mxCell>
        <mxCell id="Nav_433cfQr_aZsSD8Gi-20" style="edgeStyle=orthogonalEdgeStyle;rounded=0;orthogonalLoop=1;jettySize=auto;html=1;exitX=0.5;exitY=1;exitDx=0;exitDy=0;" edge="1" parent="1" source="Nav_433cfQr_aZsSD8Gi-16" target="Nav_433cfQr_aZsSD8Gi-17">
          <mxGeometry relative="1" as="geometry" />
        </mxCell>
        <mxCell id="Nav_433cfQr_aZsSD8Gi-16" value="User succesfully &lt;br&gt;logs in" style="rounded=1;whiteSpace=wrap;html=1;" vertex="1" parent="1">
          <mxGeometry x="340" y="320" width="110" height="40" as="geometry" />
        </mxCell>
        <mxCell id="Nav_433cfQr_aZsSD8Gi-22" style="edgeStyle=orthogonalEdgeStyle;rounded=0;orthogonalLoop=1;jettySize=auto;html=1;entryX=0.5;entryY=0;entryDx=0;entryDy=0;" edge="1" parent="1" source="Nav_433cfQr_aZsSD8Gi-17" target="Nav_433cfQr_aZsSD8Gi-21">
          <mxGeometry relative="1" as="geometry" />
        </mxCell>
        <mxCell id="Nav_433cfQr_aZsSD8Gi-17" value="User&#39;s settings are displayed" style="rounded=1;whiteSpace=wrap;html=1;" vertex="1" parent="1">
          <mxGeometry x="342.5" y="400" width="105" height="40" as="geometry" />
        </mxCell>
        <mxCell id="Nav_433cfQr_aZsSD8Gi-21" value="" style="ellipse;html=1;shape=endState;fillColor=#000000;strokeColor=#ff0000;" vertex="1" parent="1">
          <mxGeometry x="380" y="500" width="30" height="30" as="geometry" />
        </mxCell>
        <mxCell id="Nav_433cfQr_aZsSD8Gi-23" value="Correct login and password" style="shape=note;size=20;whiteSpace=wrap;html=1;" vertex="1" parent="1">
          <mxGeometry x="210" y="190" width="100" height="60" as="geometry" />
        </mxCell>
        <mxCell id="Nav_433cfQr_aZsSD8Gi-24" value="User logs into the system" style="shape=note;size=22;whiteSpace=wrap;html=1;" vertex="1" parent="1">
          <mxGeometry x="500" y="485" width="110" height="60" as="geometry" />
        </mxCell>
        <mxCell id="Nav_433cfQr_aZsSD8Gi-26" style="edgeStyle=orthogonalEdgeStyle;rounded=0;orthogonalLoop=1;jettySize=auto;html=1;entryX=0;entryY=0;entryDx=100;entryDy=40;entryPerimeter=0;" edge="1" parent="1" source="Nav_433cfQr_aZsSD8Gi-5" target="Nav_433cfQr_aZsSD8Gi-23">
          <mxGeometry relative="1" as="geometry" />
        </mxCell>
        <mxCell id="Nav_433cfQr_aZsSD8Gi-29" style="edgeStyle=orthogonalEdgeStyle;rounded=0;orthogonalLoop=1;jettySize=auto;html=1;exitX=1;exitY=0.5;exitDx=0;exitDy=0;entryX=0;entryY=0.5;entryDx=0;entryDy=0;entryPerimeter=0;" edge="1" parent="1" source="Nav_433cfQr_aZsSD8Gi-21" target="Nav_433cfQr_aZsSD8Gi-24">
          <mxGeometry relative="1" as="geometry" />
        </mxCell>
        <mxCell id="Nav_433cfQr_aZsSD8Gi-30" value="Apply for Loan" style="swimlane;childLayout=stackLayout;resizeParent=1;resizeParentMax=0;startSize=20;html=1;" vertex="1" parent="1">
          <mxGeometry x="210" y="700" width="565" height="540" as="geometry">
            <mxRectangle x="210" y="700" width="130" height="30" as="alternateBounds" />
          </mxGeometry>
        </mxCell>
        <mxCell id="Nav_433cfQr_aZsSD8Gi-31" value="Customer" style="swimlane;startSize=20;html=1;" vertex="1" parent="Nav_433cfQr_aZsSD8Gi-30">
          <mxGeometry y="20" width="130" height="520" as="geometry">
            <mxRectangle y="20" width="40" height="460" as="alternateBounds" />
          </mxGeometry>
        </mxCell>
        <mxCell id="Nav_433cfQr_aZsSD8Gi-44" style="edgeStyle=orthogonalEdgeStyle;rounded=0;orthogonalLoop=1;jettySize=auto;html=1;exitX=0.5;exitY=1;exitDx=0;exitDy=0;entryX=0.5;entryY=0;entryDx=0;entryDy=0;" edge="1" parent="Nav_433cfQr_aZsSD8Gi-31" source="Nav_433cfQr_aZsSD8Gi-40" target="Nav_433cfQr_aZsSD8Gi-43">
          <mxGeometry relative="1" as="geometry" />
        </mxCell>
        <mxCell id="Nav_433cfQr_aZsSD8Gi-40" value="" style="ellipse;html=1;shape=startState;fillColor=#000000;strokeColor=#ff0000;" vertex="1" parent="Nav_433cfQr_aZsSD8Gi-31">
          <mxGeometry x="35" y="30" width="30" height="30" as="geometry" />
        </mxCell>
        <mxCell id="Nav_433cfQr_aZsSD8Gi-43" value="Apply for &lt;br&gt;Loan" style="rounded=1;whiteSpace=wrap;html=1;" vertex="1" parent="Nav_433cfQr_aZsSD8Gi-31">
          <mxGeometry x="20" y="90" width="60" height="30" as="geometry" />
        </mxCell>
        <mxCell id="Nav_433cfQr_aZsSD8Gi-73" value="" style="ellipse;html=1;shape=endState;fillColor=#000000;strokeColor=#ff0000;" vertex="1" parent="Nav_433cfQr_aZsSD8Gi-31">
          <mxGeometry x="50" y="460" width="30" height="30" as="geometry" />
        </mxCell>
        <mxCell id="Nav_433cfQr_aZsSD8Gi-32" value="Bank" style="swimlane;startSize=20;html=1;" vertex="1" parent="Nav_433cfQr_aZsSD8Gi-30">
          <mxGeometry x="130" y="20" width="135" height="520" as="geometry">
            <mxRectangle x="120" y="20" width="40" height="460" as="alternateBounds" />
          </mxGeometry>
        </mxCell>
        <mxCell id="Nav_433cfQr_aZsSD8Gi-45" value="Application&amp;nbsp;&lt;br&gt;Confirmed" style="rounded=1;whiteSpace=wrap;html=1;" vertex="1" parent="Nav_433cfQr_aZsSD8Gi-32">
          <mxGeometry x="30" y="90" width="75" height="30" as="geometry" />
        </mxCell>
        <mxCell id="Nav_433cfQr_aZsSD8Gi-71" style="edgeStyle=orthogonalEdgeStyle;rounded=0;orthogonalLoop=1;jettySize=auto;html=1;exitX=0.5;exitY=1;exitDx=0;exitDy=0;entryX=0.5;entryY=0;entryDx=0;entryDy=0;" edge="1" parent="Nav_433cfQr_aZsSD8Gi-32" source="Nav_433cfQr_aZsSD8Gi-64" target="Nav_433cfQr_aZsSD8Gi-68">
          <mxGeometry relative="1" as="geometry" />
        </mxCell>
        <mxCell id="Nav_433cfQr_aZsSD8Gi-64" value="Risk&lt;br&gt;&amp;nbsp;Assessment&lt;br&gt;" style="rounded=1;whiteSpace=wrap;html=1;" vertex="1" parent="Nav_433cfQr_aZsSD8Gi-32">
          <mxGeometry x="30" y="280" width="80" height="40" as="geometry" />
        </mxCell>
        <mxCell id="Nav_433cfQr_aZsSD8Gi-68" value="" style="rhombus;whiteSpace=wrap;html=1;fontColor=#000000;fillColor=#ffffc0;strokeColor=#ff0000;" vertex="1" parent="Nav_433cfQr_aZsSD8Gi-32">
          <mxGeometry x="30" y="370" width="80" height="40" as="geometry" />
        </mxCell>
        <mxCell id="Nav_433cfQr_aZsSD8Gi-33" value="Credit Rating Agency" style="swimlane;startSize=20;html=1;" vertex="1" parent="Nav_433cfQr_aZsSD8Gi-30">
          <mxGeometry x="265" y="20" width="180" height="520" as="geometry">
            <mxRectangle x="240" y="20" width="40" height="460" as="alternateBounds" />
          </mxGeometry>
        </mxCell>
        <mxCell id="Nav_433cfQr_aZsSD8Gi-54" value="Credit&amp;nbsp;&lt;br&gt;Check" style="rounded=1;whiteSpace=wrap;html=1;" vertex="1" parent="Nav_433cfQr_aZsSD8Gi-33">
          <mxGeometry x="55" y="170" width="60" height="30" as="geometry" />
        </mxCell>
        <mxCell id="Nav_433cfQr_aZsSD8Gi-39" value="Property Agent" style="swimlane;startSize=20;html=1;" vertex="1" parent="Nav_433cfQr_aZsSD8Gi-30">
          <mxGeometry x="445" y="20" width="120" height="520" as="geometry">
            <mxRectangle x="240" y="20" width="40" height="460" as="alternateBounds" />
          </mxGeometry>
        </mxCell>
        <mxCell id="Nav_433cfQr_aZsSD8Gi-59" style="edgeStyle=orthogonalEdgeStyle;rounded=0;orthogonalLoop=1;jettySize=auto;html=1;exitX=0.75;exitY=0.5;exitDx=0;exitDy=0;exitPerimeter=0;entryX=0.5;entryY=0;entryDx=0;entryDy=0;" edge="1" parent="Nav_433cfQr_aZsSD8Gi-39" source="Nav_433cfQr_aZsSD8Gi-51" target="Nav_433cfQr_aZsSD8Gi-58">
          <mxGeometry relative="1" as="geometry" />
        </mxCell>
        <mxCell id="Nav_433cfQr_aZsSD8Gi-51" value="" style="shape=line;html=1;strokeWidth=6;strokeColor=#ff0000;" vertex="1" parent="Nav_433cfQr_aZsSD8Gi-39">
          <mxGeometry x="-110" y="130" width="200" height="10" as="geometry" />
        </mxCell>
        <mxCell id="Nav_433cfQr_aZsSD8Gi-58" value="Property Value&lt;br&gt;Assessment" style="rounded=1;whiteSpace=wrap;html=1;" vertex="1" parent="Nav_433cfQr_aZsSD8Gi-39">
          <mxGeometry x="10" y="165" width="100" height="40" as="geometry" />
        </mxCell>
        <mxCell id="Nav_433cfQr_aZsSD8Gi-60" value="" style="shape=line;html=1;strokeWidth=6;strokeColor=#ff0000;" vertex="1" parent="Nav_433cfQr_aZsSD8Gi-39">
          <mxGeometry x="-110" y="240" width="200" height="10" as="geometry" />
        </mxCell>
        <mxCell id="Nav_433cfQr_aZsSD8Gi-62" style="edgeStyle=orthogonalEdgeStyle;rounded=0;orthogonalLoop=1;jettySize=auto;html=1;exitX=0.5;exitY=1;exitDx=0;exitDy=0;entryX=0.75;entryY=0.5;entryDx=0;entryDy=0;entryPerimeter=0;" edge="1" parent="Nav_433cfQr_aZsSD8Gi-39" source="Nav_433cfQr_aZsSD8Gi-58" target="Nav_433cfQr_aZsSD8Gi-60">
          <mxGeometry relative="1" as="geometry" />
        </mxCell>
        <mxCell id="Nav_433cfQr_aZsSD8Gi-46" style="edgeStyle=orthogonalEdgeStyle;rounded=0;orthogonalLoop=1;jettySize=auto;html=1;exitX=1;exitY=0.5;exitDx=0;exitDy=0;entryX=0;entryY=0.5;entryDx=0;entryDy=0;" edge="1" parent="Nav_433cfQr_aZsSD8Gi-30" source="Nav_433cfQr_aZsSD8Gi-43" target="Nav_433cfQr_aZsSD8Gi-45">
          <mxGeometry relative="1" as="geometry" />
        </mxCell>
        <mxCell id="Nav_433cfQr_aZsSD8Gi-57" style="edgeStyle=orthogonalEdgeStyle;rounded=0;orthogonalLoop=1;jettySize=auto;html=1;exitX=0.25;exitY=0.5;exitDx=0;exitDy=0;exitPerimeter=0;entryX=0.5;entryY=0;entryDx=0;entryDy=0;" edge="1" parent="Nav_433cfQr_aZsSD8Gi-30" source="Nav_433cfQr_aZsSD8Gi-51" target="Nav_433cfQr_aZsSD8Gi-54">
          <mxGeometry relative="1" as="geometry" />
        </mxCell>
        <mxCell id="Nav_433cfQr_aZsSD8Gi-63" style="edgeStyle=orthogonalEdgeStyle;rounded=0;orthogonalLoop=1;jettySize=auto;html=1;exitX=0.5;exitY=1;exitDx=0;exitDy=0;entryX=0.25;entryY=0.5;entryDx=0;entryDy=0;entryPerimeter=0;" edge="1" parent="Nav_433cfQr_aZsSD8Gi-30" source="Nav_433cfQr_aZsSD8Gi-54" target="Nav_433cfQr_aZsSD8Gi-60">
          <mxGeometry relative="1" as="geometry" />
        </mxCell>
        <mxCell id="Nav_433cfQr_aZsSD8Gi-65" style="edgeStyle=orthogonalEdgeStyle;rounded=0;orthogonalLoop=1;jettySize=auto;html=1;exitX=1;exitY=0.5;exitDx=0;exitDy=0;entryX=0.543;entryY=0.52;entryDx=0;entryDy=0;entryPerimeter=0;" edge="1" parent="Nav_433cfQr_aZsSD8Gi-30" source="Nav_433cfQr_aZsSD8Gi-45" target="Nav_433cfQr_aZsSD8Gi-51">
          <mxGeometry relative="1" as="geometry" />
        </mxCell>
        <mxCell id="Nav_433cfQr_aZsSD8Gi-67" style="edgeStyle=orthogonalEdgeStyle;rounded=0;orthogonalLoop=1;jettySize=auto;html=1;" edge="1" parent="Nav_433cfQr_aZsSD8Gi-30" source="Nav_433cfQr_aZsSD8Gi-60" target="Nav_433cfQr_aZsSD8Gi-64">
          <mxGeometry relative="1" as="geometry">
            <Array as="points">
              <mxPoint x="435" y="280" />
              <mxPoint x="195" y="280" />
            </Array>
          </mxGeometry>
        </mxCell>
        <mxCell id="Nav_433cfQr_aZsSD8Gi-74" style="edgeStyle=orthogonalEdgeStyle;rounded=0;orthogonalLoop=1;jettySize=auto;html=1;exitX=1;exitY=0.5;exitDx=0;exitDy=0;entryX=1;entryY=0.5;entryDx=0;entryDy=0;" edge="1" parent="Nav_433cfQr_aZsSD8Gi-30" source="Nav_433cfQr_aZsSD8Gi-68" target="Nav_433cfQr_aZsSD8Gi-73">
          <mxGeometry relative="1" as="geometry" />
        </mxCell>
        <mxCell id="Nav_433cfQr_aZsSD8Gi-76" value="[Loan Approved]" style="edgeLabel;html=1;align=center;verticalAlign=middle;resizable=0;points=[];" vertex="1" connectable="0" parent="Nav_433cfQr_aZsSD8Gi-74">
          <mxGeometry x="0.2407" y="-2" relative="1" as="geometry">
            <mxPoint as="offset" />
          </mxGeometry>
        </mxCell>
        <mxCell id="Nav_433cfQr_aZsSD8Gi-75" style="edgeStyle=orthogonalEdgeStyle;rounded=0;orthogonalLoop=1;jettySize=auto;html=1;exitX=0;exitY=0.5;exitDx=0;exitDy=0;entryX=0.5;entryY=0;entryDx=0;entryDy=0;" edge="1" parent="Nav_433cfQr_aZsSD8Gi-30" source="Nav_433cfQr_aZsSD8Gi-68" target="Nav_433cfQr_aZsSD8Gi-73">
          <mxGeometry relative="1" as="geometry" />
        </mxCell>
        <mxCell id="Nav_433cfQr_aZsSD8Gi-77" value="[Loan Rejected]" style="edgeLabel;html=1;align=center;verticalAlign=middle;resizable=0;points=[];" vertex="1" connectable="0" parent="Nav_433cfQr_aZsSD8Gi-75">
          <mxGeometry x="-0.1176" y="1" relative="1" as="geometry">
            <mxPoint x="23" y="-1" as="offset" />
          </mxGeometry>
        </mxCell>
      </root>
    </mxGraphModel>
  </diagram>
</mxfile>
